<svg width="1180" height="55" viewBox="0 0 1180 55" fill="none" xmlns="http://www.w3.org/2000/svg">
<rect width="1180" height="55" rx="12" fill="#F9B411"/>
<path d="M102 0H62L37 55H77L102 0Z" fill="#352E35"/>
<path d="M182 0H142L117 55H157L182 0Z" fill="#352E35"/>
<path d="M262 0H222L197 55H237L262 0Z" fill="#352E35"/>
<path d="M342 0H302L277 55H317L342 0Z" fill="#352E35"/>
<path d="M422 0H382L357 55H397L422 0Z" fill="#352E35"/>
<path d="M502 0H462L437 55H477L502 0Z" fill="#352E35"/>
<path d="M582 0H542L517 55H557L582 0Z" fill="#352E35"/>
<path d="M662 0H622L597 55H637L662 0Z" fill="#352E35"/>
<path d="M742 0H702L677 55H717L742 0Z" fill="#352E35"/>
<path d="M822 0H782L757 55H797L822 0Z" fill="#352E35"/>
<path d="M902 0H862L837 55H877L902 0Z" fill="#352E35"/>
<path d="M982 0H942L917 55H957L982 0Z" fill="#352E35"/>
<path d="M1062 0H1022L997 55H1037L1062 0Z" fill="#352E35"/>
<path d="M1142 0H1102L1077 55H1117L1142 0Z" fill="#352E35"/>
<rect x="2" y="2" width="1176" height="51" rx="10" stroke="#F9B411" stroke-width="4"/>
</svg>
