<svg width="138" height="138" viewBox="0 0 138 138" fill="none" xmlns="http://www.w3.org/2000/svg">
<circle cx="69" cy="69" r="69" fill="white"/>
<path fill-rule="evenodd" clip-rule="evenodd" d="M120 68.5C120 77.6259 117.626 86.1973 113.463 93.6307C112.046 93.2201 110.549 93 109 93C100.163 93 93 100.163 93 109C93 110.549 93.2201 112.046 93.6307 113.463C86.1973 117.626 77.6259 120 68.5 120C40.0573 120 17 96.9427 17 68.5C17 40.0573 40.0573 17 68.5 17C96.9427 17 120 40.0573 120 68.5ZM33.9172 68.5C33.9172 87.5995 49.4005 103.083 68.5 103.083C87.5995 103.083 103.083 87.5995 103.083 68.5C103.083 49.4005 87.5995 33.9172 68.5 33.9172C49.4005 33.9172 33.9172 49.4005 33.9172 68.5ZM109 120C115.075 120 120 115.075 120 109C120 102.925 115.075 98 109 98C102.925 98 98 102.925 98 109C98 115.075 102.925 120 109 120Z" fill="url(#paint0_linear_6_4)"/>
<defs>
<linearGradient id="paint0_linear_6_4" x1="34.5" y1="105" x2="100" y2="30.5" gradientUnits="userSpaceOnUse">
<stop stop-color="#F1B6E8"/>
<stop offset="0.508333" stop-color="#2EB6E8"/>
<stop offset="1" stop-color="#80F1EF"/>
</linearGradient>
</defs>
</svg>
