<svg width="429" height="144" viewBox="0 0 429 144" fill="none" xmlns="http://www.w3.org/2000/svg">
<path d="M153.013 130L158.645 94.48H144.309L145.845 84.88H186.293L184.757 94.48H170.421L164.789 130H153.013ZM199.994 130.704C196.666 130.704 193.402 130.277 190.202 129.424C187.002 128.528 184.164 127.184 181.69 125.392L185.53 116.56C188.132 118.181 190.799 119.333 193.53 120.016C196.26 120.699 198.799 121.04 201.146 121.04C203.578 121.04 205.434 120.656 206.714 119.888C208.036 119.12 208.698 118.117 208.698 116.88C208.698 115.899 208.292 115.067 207.482 114.384C206.714 113.701 205.476 113.189 203.77 112.848L196.41 111.056C193.167 110.331 190.586 108.944 188.666 106.896C186.788 104.848 185.85 102.309 185.85 99.28C185.85 96.0373 186.724 93.3067 188.474 91.088C190.266 88.8267 192.612 87.12 195.514 85.968C198.458 84.7733 201.615 84.176 204.986 84.176C207.802 84.176 210.66 84.5813 213.562 85.392C216.506 86.2027 219.172 87.4827 221.562 89.232L217.53 97.616C215.61 96.2507 213.498 95.2907 211.194 94.736C208.932 94.1387 206.842 93.84 204.922 93.84C202.575 93.84 200.719 94.2453 199.354 95.056C198.031 95.824 197.37 96.8267 197.37 98.064C197.37 99.984 198.863 101.307 201.85 102.032L209.21 103.76C212.708 104.571 215.418 106.021 217.338 108.112C219.258 110.16 220.218 112.635 220.218 115.536C220.218 118.096 219.663 120.336 218.554 122.256C217.444 124.133 215.951 125.712 214.074 126.992C212.196 128.229 210.042 129.168 207.61 129.808C205.178 130.405 202.639 130.704 199.994 130.704ZM223.889 130L231.057 84.88H250.129C255.59 84.88 259.665 86.0533 262.353 88.4C265.084 90.704 266.449 93.8827 266.449 97.936C266.449 103.227 264.828 107.301 261.585 110.16C258.385 113.019 253.734 114.448 247.633 114.448H238.161L235.665 130H223.889ZM239.569 105.424H248.081C252.86 105.424 255.249 103.269 255.249 98.96C255.249 95.5893 253.009 93.904 248.529 93.904H241.361L239.569 105.424ZM277.167 136.48L278.571 127.768C277.899 128.608 277.083 129.256 276.123 129.712C275.187 130.168 274.167 130.396 273.063 130.396C271.071 130.396 269.475 129.7 268.275 128.308C267.099 126.916 266.511 125.044 266.511 122.692C266.511 120.604 266.883 118.756 267.627 117.148C268.371 115.516 269.415 114.232 270.759 113.296C272.103 112.36 273.675 111.892 275.475 111.892C276.675 111.892 277.743 112.156 278.679 112.684C279.615 113.188 280.311 113.932 280.767 114.916L281.163 112.288H287.427L283.575 136.48H277.167ZM275.763 125.68C276.963 125.68 277.911 125.14 278.607 124.06C279.303 122.98 279.651 121.612 279.651 119.956C279.651 118.876 279.399 118.048 278.895 117.472C278.415 116.896 277.743 116.608 276.879 116.608C275.655 116.608 274.695 117.148 273.999 118.228C273.303 119.284 272.955 120.652 272.955 122.332C272.955 123.412 273.195 124.24 273.675 124.816C274.179 125.392 274.875 125.68 275.763 125.68ZM294.667 130.396C293.395 130.396 292.315 130.132 291.427 129.604C290.539 129.076 289.903 128.248 289.519 127.12C289.135 125.992 289.087 124.54 289.375 122.764L291.031 112.288H297.439L295.819 122.656C295.507 124.552 296.095 125.5 297.583 125.5C298.519 125.5 299.299 125.164 299.923 124.492C300.547 123.82 300.955 122.884 301.147 121.684L302.623 112.288H309.031L306.223 130H299.959L300.355 127.48C299.731 128.44 298.927 129.172 297.943 129.676C296.959 130.156 295.867 130.396 294.667 130.396ZM316.144 130.396C314.992 130.396 313.96 130.132 313.048 129.604C312.136 129.076 311.404 128.392 310.852 127.552C310.324 126.688 310.06 125.764 310.06 124.78C310.06 122.908 310.864 121.552 312.472 120.712C314.08 119.848 316.576 119.416 319.96 119.416H322.408L322.444 119.092C322.588 118.3 322.408 117.676 321.904 117.22C321.424 116.764 320.632 116.536 319.528 116.536C317.416 116.536 315.352 117.112 313.336 118.264L312.148 114.016C313.084 113.392 314.308 112.888 315.82 112.504C317.356 112.096 318.892 111.892 320.428 111.892C322.612 111.892 324.316 112.288 325.54 113.08C326.764 113.872 327.58 114.94 327.988 116.284C328.42 117.604 328.504 119.044 328.24 120.604L326.764 130H320.824L321.22 127.444C320.644 128.5 319.912 129.256 319.024 129.712C318.16 130.168 317.2 130.396 316.144 130.396ZM318.376 126.22C319.312 126.22 320.08 125.944 320.68 125.392C321.28 124.84 321.652 124.12 321.796 123.232L321.904 122.44H319.96C318.616 122.44 317.644 122.596 317.044 122.908C316.468 123.196 316.18 123.676 316.18 124.348C316.18 124.948 316.384 125.416 316.792 125.752C317.2 126.064 317.728 126.22 318.376 126.22ZM330.413 130L333.221 112.288H339.449L339.053 114.808C340.349 112.864 342.305 111.892 344.921 111.892C346.817 111.892 348.281 112.504 349.313 113.728C350.345 114.928 350.657 116.86 350.249 119.524L348.593 130H342.185L343.805 119.632C343.949 118.696 343.877 117.988 343.589 117.508C343.325 117.028 342.785 116.788 341.969 116.788C340.985 116.788 340.169 117.124 339.521 117.796C338.897 118.444 338.489 119.368 338.297 120.568L336.821 130H330.413ZM361.929 130.396C360.105 130.396 358.617 130.072 357.465 129.424C356.313 128.776 355.509 127.876 355.053 126.724C354.597 125.572 354.489 124.252 354.729 122.764L355.665 117.004H352.353L353.109 112.288H356.421L357.213 107.14H363.621L362.829 112.288H367.941L367.185 117.004H362.073L361.173 122.512C361.029 123.496 361.173 124.204 361.605 124.636C362.061 125.044 362.721 125.248 363.585 125.248C364.161 125.248 364.797 125.14 365.493 124.924L365.673 129.676C365.169 129.916 364.581 130.096 363.909 130.216C363.237 130.336 362.577 130.396 361.929 130.396ZM373.909 130.396C372.637 130.396 371.557 130.132 370.669 129.604C369.781 129.076 369.145 128.248 368.761 127.12C368.377 125.992 368.329 124.54 368.617 122.764L370.273 112.288H376.681L375.061 122.656C374.749 124.552 375.337 125.5 376.825 125.5C377.761 125.5 378.541 125.164 379.165 124.492C379.789 123.82 380.197 122.884 380.389 121.684L381.865 112.288H388.273L385.465 130H379.201L379.597 127.48C378.973 128.44 378.169 129.172 377.185 129.676C376.201 130.156 375.109 130.396 373.909 130.396ZM389.267 130L392.075 112.288H398.303L397.907 114.736C398.627 113.728 399.467 113.008 400.427 112.576C401.411 112.12 402.407 111.892 403.415 111.892C405.767 111.892 407.387 112.948 408.275 115.06C408.947 114.004 409.799 113.212 410.831 112.684C411.887 112.156 413.063 111.892 414.359 111.892C416.231 111.892 417.671 112.492 418.679 113.692C419.711 114.892 420.023 116.836 419.615 119.524L417.959 130H411.551L413.171 119.596C413.459 117.724 412.919 116.788 411.551 116.788C410.687 116.788 409.967 117.124 409.391 117.796C408.839 118.444 408.467 119.368 408.275 120.568L406.799 130H400.391L402.047 119.596C402.335 117.724 401.783 116.788 400.391 116.788C399.551 116.788 398.843 117.124 398.267 117.796C397.715 118.444 397.343 119.368 397.151 120.568L395.675 130H389.267Z" fill="#2EB6E8"/>
<path fill-rule="evenodd" clip-rule="evenodd" d="M147 12C147 16.9706 142.971 21 138 21C133.029 21 129 16.9706 129 12C129 7.02944 133.029 3 138 3C142.971 3 147 7.02944 147 12ZM150 12C150 18.3607 145.051 23.5655 138.794 23.9742L131.199 90.4311C136.273 91.8311 140 96.4803 140 102C140 108.627 134.627 114 128 114C121.723 114 116.572 109.181 116.044 103.041L23.6848 119.744C22.4439 125.049 17.6833 129 12 129C5.37258 129 0 123.627 0 117C0 110.691 4.86867 105.519 11.0538 105.037L12.95 35.8256C7.29919 34.8529 3 29.9285 3 24C3 17.3726 8.37258 12 15 12C20.565 12 25.2453 15.7882 26.6028 20.9265L126.028 11.179C126.45 4.9345 131.649 0 138 0C144.627 0 150 5.37258 150 12ZM126.197 14.1768C126.606 16.4105 127.634 18.4281 129.096 20.0454L80.8184 75.8963C78.7183 74.091 75.9866 73 73 73C70.2657 73 67.745 73.9145 65.727 75.4544L24.4921 31.3426C26.0643 29.3132 27 26.7659 27 24C27 23.9673 26.9999 23.9346 26.9996 23.902L126.197 14.1768ZM23.9947 116.639C23.8244 110.873 19.5864 106.128 14.0511 105.175L15.9473 35.9632C18.3597 35.7748 20.5718 34.873 22.3728 33.4686L63.5862 77.5574C61.9669 79.6028 61 82.1885 61 85C61 91.6274 66.3726 97 73 97C78.4277 97 83.0137 93.3965 84.4962 88.4514L117.36 96.4454C116.71 97.6875 116.272 99.0576 116.092 100.508L116 100L23.9947 116.639ZM131.369 22.0033C132.685 22.8772 134.183 23.4985 135.795 23.7978L128.228 90.0021C128.152 90.0007 128.076 90 128 90C124.538 90 121.418 91.4664 119.227 93.8121L84.9904 85.4842C84.9968 85.3236 85 85.1622 85 85C85 82.4484 84.2036 80.0829 82.8459 78.1383L131.369 22.0033ZM24 24C24 28.9706 19.9706 33 15 33C10.0294 33 6 28.9706 6 24C6 19.0294 10.0294 15 15 15C19.9706 15 24 19.0294 24 24ZM12 126C16.9706 126 21 121.971 21 117C21 112.029 16.9706 108 12 108C7.02944 108 3 112.029 3 117C3 121.971 7.02944 126 12 126ZM137 102C137 106.971 132.971 111 128 111C123.029 111 119 106.971 119 102C119 97.0294 123.029 93 128 93C132.971 93 137 97.0294 137 102ZM73 94C77.9706 94 82 89.9706 82 85C82 80.0294 77.9706 76 73 76C68.0294 76 64 80.0294 64 85C64 89.9706 68.0294 94 73 94Z" fill="url(#paint0_linear_2_40)"/>
<path fill-rule="evenodd" clip-rule="evenodd" d="M126.771 103.072C130.743 95.7694 133 87.3983 133 78.5C133 50.0573 109.943 27 81.5 27C65.7402 27 51.6338 34.079 42.187 45.2307L53.8393 57.696C60.1552 49.3118 70.1946 43.891 81.5 43.891C100.614 43.891 116.109 59.386 116.109 78.5C116.109 97.614 100.614 113.109 81.5 113.109C62.386 113.109 46.891 97.614 46.891 78.5C46.891 74.4684 47.5804 70.5979 48.8476 66.9998L36.3764 53.6585C32.3126 61.0247 30 69.4923 30 78.5C30 106.943 53.0573 130 81.5 130C90.3982 130 98.7694 127.743 106.072 123.771C105.38 121.981 105 120.035 105 118C105 109.163 112.163 102 121 102C123.035 102 124.981 102.38 126.771 103.072ZM132 118C132 124.075 127.075 129 121 129C114.925 129 110 124.075 110 118C110 111.925 114.925 107 121 107C127.075 107 132 111.925 132 118Z" fill="url(#paint1_linear_2_40)"/>
<defs>
<linearGradient id="paint0_linear_2_40" x1="141" y1="8.5" x2="16" y2="122.5" gradientUnits="userSpaceOnUse">
<stop stop-color="#2EB6E8"/>
<stop offset="1" stop-color="#2EB6E8" stop-opacity="0.2"/>
</linearGradient>
<linearGradient id="paint1_linear_2_40" x1="116" y1="41" x2="51.5" y2="118" gradientUnits="userSpaceOnUse">
<stop stop-color="#80F1EF"/>
<stop offset="0.509797" stop-color="#2EB6E8"/>
<stop offset="1" stop-color="#F1B6E8"/>
</linearGradient>
</defs>
</svg>
